<svg width="77" height="76" viewBox="0 0 77 76" fill="none" xmlns="http://www.w3.org/2000/svg">
<path d="M38.8672 0C31.3515 0 24.0046 2.22866 17.7555 6.40415C11.5065 10.5796 6.63591 16.5144 3.75978 23.458C0.883652 30.4016 0.131126 38.0421 1.59736 45.4134C3.0636 52.7847 6.68275 59.5556 11.9971 64.87C17.3115 70.1844 24.0825 73.8036 31.4538 75.2698C38.825 76.7361 46.4656 75.9835 53.4092 73.1074C60.3528 70.2313 66.2875 65.3607 70.463 59.1117C74.6385 52.8626 76.8672 45.5157 76.8672 38C76.8672 33.0098 75.8843 28.0684 73.9746 23.458C72.0649 18.8477 69.2659 14.6586 65.7372 11.1299C62.2086 7.60131 58.0195 4.80226 53.4092 2.89258C48.7988 0.982899 43.8574 0 38.8672 0ZM55.2072 28.918L37.8412 51.718C37.4872 52.1778 37.0326 52.5505 36.5122 52.8074C35.9918 53.0643 35.4195 53.1986 34.8392 53.2C34.262 53.2031 33.6917 53.0747 33.1715 52.8245C32.6514 52.5743 32.1951 52.2089 31.8372 51.756L22.5652 39.938C22.2583 39.5438 22.0321 39.0929 21.8994 38.6113C21.7667 38.1296 21.7302 37.6265 21.792 37.1308C21.8537 36.635 22.0125 36.1562 22.2593 35.7218C22.5061 35.2874 22.836 34.9059 23.2302 34.599C24.0264 33.9792 25.0362 33.701 26.0374 33.8257C26.5332 33.8875 27.012 34.0463 27.4464 34.2931C27.8808 34.5398 28.2623 34.8698 28.5692 35.264L34.7632 43.168L49.1272 24.168C49.4316 23.7688 49.8117 23.4334 50.2457 23.1811C50.6797 22.9287 51.1591 22.7644 51.6567 22.6973C52.1542 22.6303 52.6601 22.6619 53.1454 22.7903C53.6307 22.9188 54.086 23.1416 54.4852 23.446C54.8844 23.7504 55.2198 24.1305 55.4721 24.5645C55.7244 24.9985 55.8888 25.4779 55.9559 25.9755C56.0229 26.473 55.9913 26.9789 55.8628 27.4642C55.7344 27.9495 55.5116 28.4048 55.2072 28.804V28.918Z" fill="#0D7377"/>
</svg>
