<svg width="700" height="700" viewBox="0 0 700 700" fill="none" xmlns="http://www.w3.org/2000/svg">
<path d="M323.586 48.7499C335.326 28.4166 364.674 28.4167 376.414 48.75L624.097 477.75C635.837 498.083 621.162 523.5 597.683 523.5H102.317C78.8377 523.5 64.1635 498.083 75.903 477.75L323.586 48.7499Z" fill="#E63946" stroke="white" stroke-width="3"/>
<path d="M322.287 98C334.604 76.6667 365.396 76.6667 377.713 98L582.095 452C594.412 473.333 579.016 500 554.382 500H145.618C120.984 500 105.588 473.333 117.905 452L322.287 98Z" fill="#F4694D"/>
<path d="M250.993 470.727V459.102L280.141 413.182H290.163V429.273H284.232L265.857 458.352V458.898H307.277V470.727H250.993ZM284.504 483V467.182L284.777 462.034V413.182H298.618V483H284.504ZM344.487 484.534C338.624 484.511 333.578 483.068 329.351 480.205C325.146 477.341 321.908 473.193 319.635 467.761C317.385 462.33 316.271 455.795 316.294 448.159C316.294 440.545 317.419 434.057 319.669 428.693C321.942 423.33 325.18 419.25 329.385 416.455C333.612 413.636 338.646 412.227 344.487 412.227C350.328 412.227 355.351 413.636 359.555 416.455C363.783 419.273 367.033 423.364 369.305 428.727C371.578 434.068 372.703 440.545 372.68 448.159C372.68 455.818 371.544 462.364 369.271 467.795C367.021 473.227 363.794 477.375 359.589 480.239C355.385 483.102 350.351 484.534 344.487 484.534ZM344.487 472.295C348.487 472.295 351.68 470.284 354.067 466.261C356.453 462.239 357.635 456.205 357.612 448.159C357.612 442.864 357.067 438.455 355.976 434.932C354.908 431.409 353.385 428.761 351.408 426.989C349.453 425.216 347.146 424.33 344.487 424.33C340.51 424.33 337.328 426.318 334.942 430.295C332.555 434.273 331.351 440.227 331.328 448.159C331.328 453.523 331.862 458 332.93 461.591C334.021 465.159 335.555 467.841 337.533 469.636C339.51 471.409 341.828 472.295 344.487 472.295ZM382.149 470.727V459.102L411.297 413.182H421.32V429.273H415.388L397.013 458.352V458.898H438.433V470.727H382.149ZM415.661 483V467.182L415.933 462.034V413.182H429.774V483H415.661Z" fill="white"/>
<path d="M319.443 161.417C319.203 157.394 322.4 154 326.43 154H373.013C377.064 154 380.269 157.428 379.998 161.47L369.106 323.376C368.859 327.052 365.805 329.906 362.122 329.906H336.095C332.391 329.906 329.328 327.021 329.107 323.324L319.443 161.417Z" fill="white"/>
<rect width="40" height="40" rx="20" transform="matrix(1 0 0 -1 330 381)" fill="white"/>
</svg>
