<svg width="805" height="319" viewBox="0 0 805 319" fill="none" xmlns="http://www.w3.org/2000/svg">
<path d="M743.749 263C641 305 712.24 316.082 485.251 316.082C258.262 316.082 -15.4992 330.546 1.50015 293C18.4994 255.455 573.984 318.571 219.75 235C-134.483 151.429 846.499 221.001 743.749 263Z" fill="#964B00"/>
<path d="M755.25 261.566C755.25 296.109 727.749 308 529.638 308C331.528 308 91.0676 308 105.904 275.157C120.741 242.314 577.641 302.17 297.916 237.073C18.1901 171.976 754.543 219.332 755.25 261.566Z" fill="#AA5500"/>
<path d="M526.957 284.753L536.572 69.9679L743.083 93.1033C769.237 96.0334 788.643 118.737 787.466 145.028L783.518 233.225C782.338 259.593 760.866 280.501 734.477 280.981L526.957 284.753Z" fill="#FFEFD1"/>
<ellipse cx="531.762" cy="177.361" rx="44" ry="107.5" transform="rotate(2.56313 531.762 177.361)" fill="#FF5F5F"/>
<ellipse cx="741.194" cy="186.784" rx="58.0798" ry="93.2801" transform="rotate(2.56313 741.194 186.784)" fill="#FFEFD1"/>
<path d="M727.676 185.459C725.236 239.966 703.657 285.98 673.286 282.403C597.005 283.51 594.008 198.536 627.847 128.578C630.287 74.0707 650.463 83.1111 679.506 84.4112C708.55 85.7114 730.116 130.952 727.676 185.459Z" fill="#0D7377"/>
<path d="M707.776 185.314C705.306 240.487 675.797 283.983 641.866 282.464C607.934 280.945 582.429 234.987 584.899 179.814C587.369 124.64 616.878 81.1449 650.81 82.6639C684.741 84.1828 710.246 130.141 707.776 185.314Z" fill="#FFEFD1"/>
<path d="M575.217 179.306C573.002 228.776 561.45 252.037 551.683 268.971C538.166 268.366 522.553 226.518 524.767 177.048C526.982 127.577 542.861 85.2089 556.379 85.814C566.829 98.3455 577.431 129.836 575.217 179.306Z" fill="#C54F4F"/>
<path d="M472 58.2137L476.067 52.0001L504.296 70.4753L500.229 76.689L472 58.2137Z" fill="white"/>
<rect x="500.004" y="2.17419" width="7.42616" height="57.0609" transform="rotate(-17.0243 500.004 2.17419)" fill="white"/>
<rect x="550.348" y="11" width="7.42616" height="40.0846" transform="rotate(4.78985 550.348 11)" fill="white"/>
<ellipse cx="119" cy="241.5" rx="29" ry="10.5" fill="#964B00"/>
<ellipse cx="123" cy="238" rx="13" ry="7" fill="#AA5500"/>
<ellipse cx="47" cy="262.5" rx="15" ry="5.5" fill="#964B00"/>
<path d="M294.585 162.636C291.373 162.636 288.509 162.045 285.994 160.864C283.494 159.682 281.509 158.053 280.04 155.977C278.57 153.902 277.805 151.523 277.744 148.841H287.29C287.396 150.644 288.153 152.106 289.562 153.227C290.972 154.348 292.646 154.909 294.585 154.909C296.131 154.909 297.494 154.568 298.676 153.886C299.873 153.189 300.805 152.227 301.472 151C302.153 149.758 302.494 148.333 302.494 146.727C302.494 145.091 302.146 143.652 301.449 142.409C300.767 141.167 299.82 140.197 298.608 139.5C297.396 138.803 296.009 138.447 294.449 138.432C293.085 138.432 291.759 138.712 290.472 139.273C289.199 139.833 288.206 140.598 287.494 141.568L278.744 140L280.949 115.455H309.403V123.5H289.062L287.858 135.159H288.131C288.949 134.008 290.184 133.053 291.835 132.295C293.487 131.538 295.335 131.159 297.381 131.159C300.184 131.159 302.684 131.818 304.881 133.136C307.078 134.455 308.812 136.265 310.085 138.568C311.358 140.856 311.987 143.492 311.972 146.477C311.987 149.614 311.259 152.402 309.79 154.841C308.335 157.265 306.297 159.174 303.676 160.568C301.07 161.947 298.04 162.636 294.585 162.636ZM337.085 163.023C333.176 163.008 329.813 162.045 326.994 160.136C324.191 158.227 322.032 155.462 320.517 151.841C319.017 148.22 318.275 143.864 318.29 138.773C318.29 133.697 319.04 129.371 320.54 125.795C322.055 122.22 324.214 119.5 327.017 117.636C329.835 115.758 333.191 114.818 337.085 114.818C340.979 114.818 344.328 115.758 347.131 117.636C349.949 119.515 352.116 122.242 353.631 125.818C355.146 129.379 355.896 133.697 355.881 138.773C355.881 143.879 355.123 148.242 353.608 151.864C352.108 155.485 349.956 158.25 347.153 160.159C344.35 162.068 340.994 163.023 337.085 163.023ZM337.085 154.864C339.752 154.864 341.881 153.523 343.472 150.841C345.063 148.159 345.85 144.136 345.835 138.773C345.835 135.242 345.472 132.303 344.744 129.955C344.032 127.606 343.017 125.841 341.699 124.659C340.396 123.477 338.858 122.886 337.085 122.886C334.434 122.886 332.313 124.212 330.722 126.864C329.131 129.515 328.328 133.485 328.312 138.773C328.312 142.348 328.669 145.333 329.381 147.727C330.108 150.106 331.131 151.894 332.449 153.091C333.767 154.273 335.312 154.864 337.085 154.864ZM381.148 163.023C377.239 163.008 373.875 162.045 371.057 160.136C368.254 158.227 366.095 155.462 364.58 151.841C363.08 148.22 362.337 143.864 362.352 138.773C362.352 133.697 363.102 129.371 364.602 125.795C366.117 122.22 368.277 119.5 371.08 117.636C373.898 115.758 377.254 114.818 381.148 114.818C385.042 114.818 388.39 115.758 391.193 117.636C394.011 119.515 396.178 122.242 397.693 125.818C399.208 129.379 399.958 133.697 399.943 138.773C399.943 143.879 399.186 148.242 397.67 151.864C396.17 155.485 394.019 158.25 391.216 160.159C388.413 162.068 385.057 163.023 381.148 163.023ZM381.148 154.864C383.814 154.864 385.943 153.523 387.534 150.841C389.125 148.159 389.913 144.136 389.898 138.773C389.898 135.242 389.534 132.303 388.807 129.955C388.095 127.606 387.08 125.841 385.761 124.659C384.458 123.477 382.92 122.886 381.148 122.886C378.496 122.886 376.375 124.212 374.784 126.864C373.193 129.515 372.39 133.485 372.375 138.773C372.375 142.348 372.731 145.333 373.443 147.727C374.17 150.106 375.193 151.894 376.511 153.091C377.83 154.273 379.375 154.864 381.148 154.864Z" fill="white"/>
</svg>
