<svg width="304" height="231" viewBox="0 0 304 231" fill="none" xmlns="http://www.w3.org/2000/svg">
<rect width="304" height="231" rx="20" fill="#D9D9D9"/>
<path d="M158.107 141.059L168.488 123.078L231.925 159.704C236.891 162.571 238.592 168.92 235.725 173.885C232.859 178.85 226.509 180.552 221.544 177.685L158.107 141.059Z" fill="#231F20" stroke="#231F20"/>
<circle cx="116.972" cy="105.972" r="55.1156" transform="rotate(-60 116.972 105.972)" fill="#231F20" stroke="#231F20"/>
<circle cx="117.475" cy="106.312" r="47.2569" transform="rotate(-60 117.475 106.312)" fill="#D9D9D9" stroke="#231F20"/>
<circle cx="100.124" cy="81.1244" r="14" transform="rotate(-60 100.124 81.1244)" fill="white"/>
<rect x="52" y="47.071" width="10" height="173.522" rx="5" transform="rotate(-45 52 47.071)" fill="#E63946"/>
<rect x="175" y="41.3171" width="10" height="173.522" rx="5" transform="rotate(45 175 41.3171)" fill="#E63946"/>
<path d="M195.028 93.375C194.808 94.9404 195.906 96.4177 197.484 96.3307C199.406 96.2247 201.298 95.7413 203.048 94.8977C205.663 93.6375 207.846 91.6302 209.32 89.1296C210.794 86.629 211.493 83.7475 211.33 80.8494C211.166 77.9513 210.147 75.1667 208.401 72.8479C206.654 70.5291 204.26 68.7801 201.52 67.8222C198.78 66.8643 195.817 66.7404 193.007 67.4662C190.196 68.1921 187.664 69.735 185.73 71.9C184.436 73.3493 183.449 75.0337 182.816 76.8513C182.296 78.3443 183.413 79.8078 184.978 80.0283V80.0283C186.543 80.2488 187.953 79.1213 188.654 77.7046C189.009 76.9872 189.461 76.3169 190 75.7134C191.179 74.3929 192.724 73.4518 194.438 73.0091C196.152 72.5664 197.959 72.642 199.631 73.2262C201.302 73.8105 202.762 74.8773 203.827 76.2916C204.892 77.7059 205.514 79.4043 205.614 81.172C205.714 82.9397 205.287 84.6972 204.388 86.2224C203.489 87.7476 202.158 88.972 200.563 89.7406C199.834 90.0919 199.065 90.3408 198.277 90.4839C196.722 90.7666 195.249 91.8097 195.028 93.375V93.375Z" fill="#E63946"/>
<rect x="194.814" y="90.9785" width="5.7879" height="12.4026" rx="2.89395" fill="#E63946"/>
<rect x="194.814" y="104.621" width="5.7879" height="4.54764" rx="2.27382" fill="#E63946"/>
<path d="M83.3912 196.455V211H81.6866L73.7605 199.58H73.6184V211H71.8571V196.455H73.5616L81.5162 207.903H81.6582V196.455H83.3912ZM91.1202 211.227C90.1354 211.227 89.2712 210.993 88.5279 210.524C87.7892 210.055 87.2116 209.4 86.7949 208.557C86.383 207.714 86.177 206.729 86.177 205.602C86.177 204.466 86.383 203.474 86.7949 202.626C87.2116 201.779 87.7892 201.121 88.5279 200.652C89.2712 200.183 90.1354 199.949 91.1202 199.949C92.1051 199.949 92.9668 200.183 93.7054 200.652C94.4488 201.121 95.0265 201.779 95.4384 202.626C95.8551 203.474 96.0634 204.466 96.0634 205.602C96.0634 206.729 95.8551 207.714 95.4384 208.557C95.0265 209.4 94.4488 210.055 93.7054 210.524C92.9668 210.993 92.1051 211.227 91.1202 211.227ZM91.1202 209.722C91.8683 209.722 92.4838 209.53 92.9668 209.146C93.4498 208.763 93.8072 208.259 94.0392 207.634C94.2712 207.009 94.3873 206.331 94.3873 205.602C94.3873 204.873 94.2712 204.194 94.0392 203.564C93.8072 202.934 93.4498 202.425 92.9668 202.037C92.4838 201.649 91.8683 201.455 91.1202 201.455C90.3721 201.455 89.7566 201.649 89.2736 202.037C88.7907 202.425 88.4332 202.934 88.2012 203.564C87.9692 204.194 87.8532 204.873 87.8532 205.602C87.8532 206.331 87.9692 207.009 88.2012 207.634C88.4332 208.259 88.7907 208.763 89.2736 209.146C89.7566 209.53 90.3721 209.722 91.1202 209.722ZM104.474 211V196.455H109.389C110.525 196.455 111.458 196.649 112.187 197.037C112.916 197.42 113.456 197.948 113.807 198.621C114.157 199.293 114.332 200.058 114.332 200.915C114.332 201.772 114.157 202.532 113.807 203.195C113.456 203.857 112.919 204.378 112.194 204.757C111.47 205.131 110.544 205.318 109.417 205.318H105.44V203.727H109.361C110.137 203.727 110.762 203.614 111.236 203.386C111.714 203.159 112.059 202.837 112.273 202.42C112.49 201.999 112.599 201.497 112.599 200.915C112.599 200.332 112.49 199.823 112.273 199.388C112.055 198.952 111.707 198.616 111.229 198.379C110.75 198.138 110.118 198.017 109.332 198.017H106.236V211H104.474ZM111.321 204.466L114.9 211H112.855L109.332 204.466H111.321ZM121.497 211.227C120.445 211.227 119.539 210.995 118.776 210.531C118.019 210.062 117.434 209.409 117.022 208.571C116.615 207.728 116.411 206.748 116.411 205.631C116.411 204.513 116.615 203.528 117.022 202.676C117.434 201.819 118.007 201.152 118.741 200.673C119.48 200.19 120.341 199.949 121.326 199.949C121.894 199.949 122.455 200.044 123.009 200.233C123.563 200.422 124.068 200.73 124.522 201.156C124.977 201.578 125.339 202.136 125.609 202.832C125.879 203.528 126.014 204.385 126.014 205.403V206.114H117.605V204.665H124.309C124.309 204.049 124.186 203.5 123.94 203.017C123.698 202.534 123.353 202.153 122.903 201.874C122.458 201.594 121.932 201.455 121.326 201.455C120.659 201.455 120.081 201.62 119.593 201.952C119.11 202.278 118.739 202.705 118.478 203.23C118.218 203.756 118.088 204.319 118.088 204.92V205.886C118.088 206.71 118.23 207.409 118.514 207.982C118.802 208.55 119.203 208.983 119.714 209.281C120.225 209.575 120.82 209.722 121.497 209.722C121.937 209.722 122.335 209.66 122.69 209.537C123.05 209.409 123.36 209.22 123.62 208.969C123.881 208.713 124.082 208.396 124.224 208.017L125.843 208.472C125.673 209.021 125.386 209.504 124.984 209.92C124.581 210.332 124.084 210.654 123.492 210.886C122.901 211.114 122.235 211.227 121.497 211.227ZM132.995 211.227C131.972 211.227 131.092 210.986 130.353 210.503C129.615 210.02 129.046 209.355 128.649 208.507C128.251 207.66 128.052 206.691 128.052 205.602C128.052 204.494 128.256 203.517 128.663 202.669C129.075 201.817 129.648 201.152 130.382 200.673C131.12 200.19 131.982 199.949 132.967 199.949C133.734 199.949 134.425 200.091 135.041 200.375C135.656 200.659 136.16 201.057 136.553 201.568C136.946 202.08 137.19 202.676 137.285 203.358H135.609C135.481 202.861 135.197 202.42 134.757 202.037C134.321 201.649 133.734 201.455 132.995 201.455C132.342 201.455 131.769 201.625 131.276 201.966C130.789 202.302 130.408 202.778 130.133 203.393C129.863 204.004 129.728 204.722 129.728 205.545C129.728 206.388 129.861 207.122 130.126 207.747C130.396 208.372 130.775 208.857 131.262 209.203C131.755 209.549 132.332 209.722 132.995 209.722C133.431 209.722 133.826 209.646 134.181 209.494C134.536 209.343 134.837 209.125 135.083 208.841C135.329 208.557 135.505 208.216 135.609 207.818H137.285C137.19 208.462 136.956 209.042 136.582 209.558C136.213 210.07 135.722 210.477 135.112 210.78C134.506 211.078 133.8 211.227 132.995 211.227ZM144.167 211.227C143.182 211.227 142.318 210.993 141.575 210.524C140.836 210.055 140.258 209.4 139.842 208.557C139.43 207.714 139.224 206.729 139.224 205.602C139.224 204.466 139.43 203.474 139.842 202.626C140.258 201.779 140.836 201.121 141.575 200.652C142.318 200.183 143.182 199.949 144.167 199.949C145.152 199.949 146.014 200.183 146.752 200.652C147.496 201.121 148.073 201.779 148.485 202.626C148.902 203.474 149.11 204.466 149.11 205.602C149.11 206.729 148.902 207.714 148.485 208.557C148.073 209.4 147.496 210.055 146.752 210.524C146.014 210.993 145.152 211.227 144.167 211.227ZM144.167 209.722C144.915 209.722 145.531 209.53 146.014 209.146C146.497 208.763 146.854 208.259 147.086 207.634C147.318 207.009 147.434 206.331 147.434 205.602C147.434 204.873 147.318 204.194 147.086 203.564C146.854 202.934 146.497 202.425 146.014 202.037C145.531 201.649 144.915 201.455 144.167 201.455C143.419 201.455 142.803 201.649 142.32 202.037C141.838 202.425 141.48 202.934 141.248 203.564C141.016 204.194 140.9 204.873 140.9 205.602C140.9 206.331 141.016 207.009 141.248 207.634C141.48 208.259 141.838 208.763 142.32 209.146C142.803 209.53 143.419 209.722 144.167 209.722ZM151.669 211V200.091H153.288V201.739H153.402C153.601 201.199 153.961 200.761 154.481 200.425C155.002 200.089 155.589 199.92 156.243 199.92C156.366 199.92 156.52 199.923 156.704 199.928C156.889 199.932 157.029 199.939 157.123 199.949V201.653C157.067 201.639 156.936 201.618 156.733 201.589C156.534 201.556 156.323 201.54 156.101 201.54C155.57 201.54 155.097 201.651 154.68 201.874C154.268 202.091 153.942 202.394 153.7 202.783C153.463 203.166 153.345 203.604 153.345 204.097V211H151.669ZM162.898 211.227C161.988 211.227 161.186 210.998 160.49 210.538C159.794 210.074 159.249 209.421 158.856 208.578C158.463 207.731 158.267 206.729 158.267 205.574C158.267 204.428 158.463 203.434 158.856 202.591C159.249 201.748 159.796 201.097 160.497 200.638C161.198 200.179 162.007 199.949 162.926 199.949C163.636 199.949 164.197 200.067 164.609 200.304C165.026 200.536 165.343 200.801 165.561 201.099C165.783 201.393 165.956 201.634 166.079 201.824H166.221V196.455H167.898V211H166.278V209.324H166.079C165.956 209.523 165.781 209.774 165.554 210.077C165.327 210.375 165.002 210.643 164.581 210.879C164.159 211.111 163.598 211.227 162.898 211.227ZM163.125 209.722C163.797 209.722 164.365 209.546 164.829 209.196C165.293 208.841 165.646 208.351 165.888 207.726C166.129 207.096 166.25 206.369 166.25 205.545C166.25 204.731 166.131 204.018 165.895 203.408C165.658 202.792 165.308 202.314 164.844 201.973C164.38 201.627 163.807 201.455 163.125 201.455C162.415 201.455 161.823 201.637 161.349 202.001C160.881 202.361 160.528 202.851 160.291 203.472C160.059 204.087 159.943 204.778 159.943 205.545C159.943 206.322 160.061 207.027 160.298 207.662C160.54 208.292 160.895 208.794 161.363 209.168C161.837 209.537 162.424 209.722 163.125 209.722ZM177.052 211V196.455H185.774V198.017H178.814V202.932H185.121V204.494H178.814V211H177.052ZM192.194 211.227C191.21 211.227 190.345 210.993 189.602 210.524C188.863 210.055 188.286 209.4 187.869 208.557C187.457 207.714 187.251 206.729 187.251 205.602C187.251 204.466 187.457 203.474 187.869 202.626C188.286 201.779 188.863 201.121 189.602 200.652C190.345 200.183 191.21 199.949 192.194 199.949C193.179 199.949 194.041 200.183 194.78 200.652C195.523 201.121 196.101 201.779 196.513 202.626C196.929 203.474 197.138 204.466 197.138 205.602C197.138 206.729 196.929 207.714 196.513 208.557C196.101 209.4 195.523 210.055 194.78 210.524C194.041 210.993 193.179 211.227 192.194 211.227ZM192.194 209.722C192.943 209.722 193.558 209.53 194.041 209.146C194.524 208.763 194.881 208.259 195.113 207.634C195.345 207.009 195.461 206.331 195.461 205.602C195.461 204.873 195.345 204.194 195.113 203.564C194.881 202.934 194.524 202.425 194.041 202.037C193.558 201.649 192.943 201.455 192.194 201.455C191.446 201.455 190.831 201.649 190.348 202.037C189.865 202.425 189.507 202.934 189.275 203.564C189.043 204.194 188.927 204.873 188.927 205.602C188.927 206.331 189.043 207.009 189.275 207.634C189.507 208.259 189.865 208.763 190.348 209.146C190.831 209.53 191.446 209.722 192.194 209.722ZM206.571 206.54V200.091H208.247V211H206.571V209.153H206.458C206.202 209.707 205.804 210.179 205.264 210.567C204.725 210.95 204.043 211.142 203.219 211.142C202.537 211.142 201.931 210.993 201.401 210.695C200.87 210.392 200.454 209.937 200.151 209.331C199.848 208.72 199.696 207.951 199.696 207.023V200.091H201.372V206.909C201.372 207.705 201.595 208.339 202.04 208.812C202.49 209.286 203.063 209.523 203.759 209.523C204.175 209.523 204.599 209.416 205.03 209.203C205.466 208.99 205.83 208.663 206.124 208.223C206.422 207.783 206.571 207.222 206.571 206.54ZM212.993 204.438V211H211.317V200.091H212.937V201.795H213.079C213.334 201.241 213.723 200.796 214.243 200.46C214.764 200.119 215.437 199.949 216.26 199.949C216.999 199.949 217.645 200.1 218.199 200.403C218.753 200.702 219.184 201.156 219.492 201.767C219.8 202.373 219.954 203.14 219.954 204.068V211H218.278V204.182C218.278 203.325 218.055 202.657 217.61 202.179C217.165 201.696 216.554 201.455 215.778 201.455C215.242 201.455 214.764 201.571 214.343 201.803C213.926 202.035 213.597 202.373 213.356 202.818C213.114 203.263 212.993 203.803 212.993 204.438ZM227.136 211.227C226.227 211.227 225.424 210.998 224.728 210.538C224.032 210.074 223.488 209.421 223.095 208.578C222.702 207.731 222.505 206.729 222.505 205.574C222.505 204.428 222.702 203.434 223.095 202.591C223.488 201.748 224.035 201.097 224.735 200.638C225.436 200.179 226.246 199.949 227.164 199.949C227.874 199.949 228.436 200.067 228.847 200.304C229.264 200.536 229.581 200.801 229.799 201.099C230.022 201.393 230.195 201.634 230.318 201.824H230.46V196.455H232.136V211H230.517V209.324H230.318C230.195 209.523 230.019 209.774 229.792 210.077C229.565 210.375 229.24 210.643 228.819 210.879C228.398 211.111 227.837 211.227 227.136 211.227ZM227.363 209.722C228.035 209.722 228.604 209.546 229.068 209.196C229.532 208.841 229.884 208.351 230.126 207.726C230.367 207.096 230.488 206.369 230.488 205.545C230.488 204.731 230.37 204.018 230.133 203.408C229.896 202.792 229.546 202.314 229.082 201.973C228.618 201.627 228.045 201.455 227.363 201.455C226.653 201.455 226.061 201.637 225.588 202.001C225.119 202.361 224.766 202.851 224.529 203.472C224.297 204.087 224.181 204.778 224.181 205.545C224.181 206.322 224.3 207.027 224.536 207.662C224.778 208.292 225.133 208.794 225.602 209.168C226.075 209.537 226.662 209.722 227.363 209.722Z" fill="black"/>
</svg>
