<svg width="281" height="231" viewBox="0 0 281 231" fill="none" xmlns="http://www.w3.org/2000/svg">
<rect width="281" height="231" rx="20" fill="white"/>
<path d="M55.5561 190.545H59.2464V201.881C59.2464 203.153 58.9425 204.267 58.3345 205.222C57.7322 206.176 56.8885 206.92 55.8033 207.455C54.718 207.983 53.4538 208.247 52.0107 208.247C50.5618 208.247 49.2947 207.983 48.2095 207.455C47.1243 206.92 46.2805 206.176 45.6783 205.222C45.076 204.267 44.7749 203.153 44.7749 201.881V190.545H48.4652V201.565C48.4652 202.23 48.6101 202.821 48.8999 203.338C49.1953 203.855 49.6101 204.261 50.1442 204.557C50.6783 204.852 51.3004 205 52.0107 205C52.7266 205 53.3487 204.852 53.8771 204.557C54.4112 204.261 54.8232 203.855 55.1129 203.338C55.4084 202.821 55.5561 202.23 55.5561 201.565V190.545ZM65.8452 200.432V208H62.2145V194.909H65.6747V197.219H65.8281C66.1179 196.457 66.6037 195.855 67.2855 195.412C67.9673 194.963 68.794 194.739 69.7656 194.739C70.6747 194.739 71.4673 194.938 72.1435 195.335C72.8196 195.733 73.3452 196.301 73.7202 197.04C74.0952 197.773 74.2827 198.648 74.2827 199.665V208H70.652V200.312C70.6577 199.511 70.4531 198.886 70.0384 198.438C69.6236 197.983 69.0526 197.756 68.3253 197.756C67.8366 197.756 67.4048 197.861 67.0298 198.071C66.6605 198.281 66.3707 198.588 66.1605 198.991C65.956 199.389 65.8509 199.869 65.8452 200.432ZM80.8771 208.247C80.0419 208.247 79.2976 208.102 78.6442 207.812C77.9908 207.517 77.4737 207.082 77.093 206.509C76.718 205.929 76.5305 205.207 76.5305 204.344C76.5305 203.616 76.6641 203.006 76.9311 202.511C77.1982 202.017 77.5618 201.619 78.022 201.318C78.4822 201.017 79.005 200.79 79.5902 200.636C80.1811 200.483 80.8004 200.375 81.4482 200.312C82.2095 200.233 82.8232 200.159 83.2891 200.091C83.755 200.017 84.093 199.909 84.3033 199.767C84.5135 199.625 84.6186 199.415 84.6186 199.136V199.085C84.6186 198.545 84.4482 198.128 84.1072 197.832C83.772 197.537 83.2947 197.389 82.6754 197.389C82.022 197.389 81.5021 197.534 81.1158 197.824C80.7294 198.108 80.4737 198.466 80.3487 198.898L76.9908 198.625C77.1612 197.83 77.4964 197.142 77.9964 196.562C78.4964 195.977 79.1413 195.528 79.9311 195.216C80.7266 194.898 81.647 194.739 82.6925 194.739C83.4197 194.739 84.1158 194.824 84.7805 194.994C85.451 195.165 86.0447 195.429 86.5618 195.787C87.0845 196.145 87.4964 196.605 87.7976 197.168C88.0987 197.724 88.2493 198.392 88.2493 199.17V208H84.8061V206.185H84.7038C84.4936 206.594 84.2124 206.955 83.8601 207.267C83.5078 207.574 83.0845 207.815 82.5902 207.991C82.0959 208.162 81.5249 208.247 80.8771 208.247ZM81.9169 205.741C82.451 205.741 82.9226 205.636 83.3317 205.426C83.7408 205.21 84.0618 204.92 84.2947 204.557C84.5277 204.193 84.6442 203.781 84.6442 203.321V201.932C84.5305 202.006 84.3743 202.074 84.1754 202.136C83.9822 202.193 83.7635 202.247 83.5192 202.298C83.2749 202.344 83.0305 202.386 82.7862 202.426C82.5419 202.46 82.3203 202.491 82.1214 202.52C81.6953 202.582 81.3232 202.682 81.005 202.818C80.6868 202.955 80.4396 203.139 80.2635 203.372C80.0874 203.599 79.9993 203.884 79.9993 204.224C79.9993 204.719 80.1783 205.097 80.5362 205.358C80.8999 205.614 81.3601 205.741 81.9169 205.741ZM91.1342 208V190.545H94.7649V197.108H94.8757C95.0348 196.756 95.2649 196.398 95.5661 196.034C95.8729 195.665 96.2706 195.358 96.7592 195.114C97.2536 194.864 97.8672 194.739 98.6001 194.739C99.5547 194.739 100.435 194.989 101.242 195.489C102.049 195.983 102.694 196.73 103.177 197.73C103.66 198.724 103.901 199.972 103.901 201.472C103.901 202.932 103.665 204.165 103.194 205.17C102.728 206.17 102.092 206.929 101.285 207.446C100.484 207.957 99.5859 208.213 98.5916 208.213C97.8871 208.213 97.2876 208.097 96.7933 207.864C96.3047 207.631 95.9041 207.338 95.5916 206.986C95.2791 206.628 95.0405 206.267 94.8757 205.903H94.7138V208H91.1342ZM94.6882 201.455C94.6882 202.233 94.7962 202.912 95.0121 203.491C95.228 204.071 95.5405 204.523 95.9496 204.847C96.3587 205.165 96.8558 205.324 97.4411 205.324C98.032 205.324 98.532 205.162 98.9411 204.838C99.3501 204.509 99.6598 204.054 99.87 203.474C100.086 202.889 100.194 202.216 100.194 201.455C100.194 200.699 100.089 200.034 99.8786 199.46C99.6683 198.886 99.3587 198.437 98.9496 198.114C98.5405 197.79 98.0376 197.628 97.4411 197.628C96.8501 197.628 96.3501 197.784 95.9411 198.097C95.5376 198.409 95.228 198.852 95.0121 199.426C94.7962 200 94.6882 200.676 94.6882 201.455ZM109.955 190.545V208H106.324V190.545H109.955ZM118.829 208.256C117.482 208.256 116.323 207.983 115.352 207.438C114.386 206.886 113.641 206.108 113.119 205.102C112.596 204.091 112.335 202.895 112.335 201.514C112.335 200.168 112.596 198.986 113.119 197.969C113.641 196.952 114.377 196.159 115.326 195.591C116.281 195.023 117.4 194.739 118.684 194.739C119.548 194.739 120.352 194.878 121.096 195.156C121.846 195.429 122.499 195.841 123.056 196.392C123.619 196.943 124.056 197.636 124.369 198.472C124.681 199.301 124.837 200.273 124.837 201.386V202.384H113.783V200.134H121.42C121.42 199.611 121.306 199.148 121.079 198.744C120.852 198.341 120.536 198.026 120.133 197.798C119.735 197.565 119.272 197.449 118.744 197.449C118.192 197.449 117.704 197.577 117.278 197.832C116.857 198.082 116.528 198.42 116.289 198.847C116.05 199.267 115.928 199.736 115.923 200.253V202.392C115.923 203.04 116.042 203.599 116.281 204.071C116.525 204.543 116.869 204.906 117.312 205.162C117.755 205.418 118.281 205.545 118.888 205.545C119.292 205.545 119.661 205.489 119.996 205.375C120.332 205.261 120.619 205.091 120.857 204.864C121.096 204.636 121.278 204.358 121.403 204.028L124.761 204.25C124.59 205.057 124.241 205.761 123.712 206.364C123.19 206.96 122.513 207.426 121.684 207.761C120.86 208.091 119.908 208.256 118.829 208.256ZM139.724 194.909V197.636H131.841V194.909H139.724ZM133.631 191.773H137.261V203.977C137.261 204.312 137.313 204.574 137.415 204.761C137.517 204.943 137.659 205.071 137.841 205.145C138.028 205.219 138.244 205.256 138.489 205.256C138.659 205.256 138.83 205.241 139 205.213C139.17 205.179 139.301 205.153 139.392 205.136L139.963 207.838C139.781 207.895 139.526 207.96 139.196 208.034C138.866 208.114 138.466 208.162 137.994 208.179C137.119 208.213 136.352 208.097 135.693 207.83C135.04 207.562 134.531 207.148 134.168 206.585C133.804 206.023 133.625 205.312 133.631 204.455V191.773ZM147.864 208.256C146.54 208.256 145.395 207.974 144.429 207.412C143.469 206.844 142.727 206.054 142.205 205.043C141.682 204.026 141.42 202.847 141.42 201.506C141.42 200.153 141.682 198.972 142.205 197.96C142.727 196.943 143.469 196.153 144.429 195.591C145.395 195.023 146.54 194.739 147.864 194.739C149.188 194.739 150.33 195.023 151.29 195.591C152.256 196.153 153 196.943 153.523 197.96C154.045 198.972 154.307 200.153 154.307 201.506C154.307 202.847 154.045 204.026 153.523 205.043C153 206.054 152.256 206.844 151.29 207.412C150.33 207.974 149.188 208.256 147.864 208.256ZM147.881 205.443C148.483 205.443 148.986 205.273 149.389 204.932C149.793 204.585 150.097 204.114 150.301 203.517C150.511 202.92 150.616 202.241 150.616 201.48C150.616 200.719 150.511 200.04 150.301 199.443C150.097 198.847 149.793 198.375 149.389 198.028C148.986 197.682 148.483 197.509 147.881 197.509C147.273 197.509 146.761 197.682 146.347 198.028C145.938 198.375 145.628 198.847 145.418 199.443C145.213 200.04 145.111 200.719 145.111 201.48C145.111 202.241 145.213 202.92 145.418 203.517C145.628 204.114 145.938 204.585 146.347 204.932C146.761 205.273 147.273 205.443 147.881 205.443ZM165.955 208.247C165.12 208.247 164.376 208.102 163.722 207.812C163.069 207.517 162.552 207.082 162.171 206.509C161.796 205.929 161.609 205.207 161.609 204.344C161.609 203.616 161.742 203.006 162.009 202.511C162.276 202.017 162.64 201.619 163.1 201.318C163.56 201.017 164.083 200.79 164.668 200.636C165.259 200.483 165.879 200.375 166.526 200.312C167.288 200.233 167.901 200.159 168.367 200.091C168.833 200.017 169.171 199.909 169.381 199.767C169.592 199.625 169.697 199.415 169.697 199.136V199.085C169.697 198.545 169.526 198.128 169.185 197.832C168.85 197.537 168.373 197.389 167.754 197.389C167.1 197.389 166.58 197.534 166.194 197.824C165.808 198.108 165.552 198.466 165.427 198.898L162.069 198.625C162.239 197.83 162.575 197.142 163.075 196.562C163.575 195.977 164.219 195.528 165.009 195.216C165.805 194.898 166.725 194.739 167.771 194.739C168.498 194.739 169.194 194.824 169.859 194.994C170.529 195.165 171.123 195.429 171.64 195.787C172.163 196.145 172.575 196.605 172.876 197.168C173.177 197.724 173.327 198.392 173.327 199.17V208H169.884V206.185H169.782C169.572 206.594 169.29 206.955 168.938 207.267C168.586 207.574 168.163 207.815 167.668 207.991C167.174 208.162 166.603 208.247 165.955 208.247ZM166.995 205.741C167.529 205.741 168.001 205.636 168.41 205.426C168.819 205.21 169.14 204.92 169.373 204.557C169.606 204.193 169.722 203.781 169.722 203.321V201.932C169.609 202.006 169.452 202.074 169.254 202.136C169.06 202.193 168.842 202.247 168.597 202.298C168.353 202.344 168.109 202.386 167.864 202.426C167.62 202.46 167.398 202.491 167.2 202.52C166.773 202.582 166.401 202.682 166.083 202.818C165.765 202.955 165.518 203.139 165.342 203.372C165.165 203.599 165.077 203.884 165.077 204.224C165.077 204.719 165.256 205.097 165.614 205.358C165.978 205.614 166.438 205.741 166.995 205.741ZM183.107 194.909V197.636H175.224V194.909H183.107ZM177.013 191.773H180.644V203.977C180.644 204.312 180.695 204.574 180.798 204.761C180.9 204.943 181.042 205.071 181.224 205.145C181.411 205.219 181.627 205.256 181.871 205.256C182.042 205.256 182.212 205.241 182.383 205.213C182.553 205.179 182.684 205.153 182.775 205.136L183.346 207.838C183.164 207.895 182.908 207.96 182.579 208.034C182.249 208.114 181.849 208.162 181.377 208.179C180.502 208.213 179.735 208.097 179.076 207.83C178.423 207.562 177.914 207.148 177.55 206.585C177.187 206.023 177.008 205.312 177.013 204.455V191.773ZM192.435 194.909V197.636H184.552V194.909H192.435ZM186.342 191.773H189.972V203.977C189.972 204.312 190.023 204.574 190.126 204.761C190.228 204.943 190.37 205.071 190.552 205.145C190.739 205.219 190.955 205.256 191.2 205.256C191.37 205.256 191.54 205.241 191.711 205.213C191.881 205.179 192.012 205.153 192.103 205.136L192.674 207.838C192.492 207.895 192.237 207.96 191.907 208.034C191.577 208.114 191.177 208.162 190.705 208.179C189.83 208.213 189.063 208.097 188.404 207.83C187.751 207.562 187.242 207.148 186.879 206.585C186.515 206.023 186.336 205.312 186.342 204.455V191.773ZM200.626 208.256C199.279 208.256 198.12 207.983 197.148 207.438C196.183 206.886 195.438 206.108 194.915 205.102C194.393 204.091 194.131 202.895 194.131 201.514C194.131 200.168 194.393 198.986 194.915 197.969C195.438 196.952 196.174 196.159 197.123 195.591C198.077 195.023 199.197 194.739 200.481 194.739C201.344 194.739 202.148 194.878 202.893 195.156C203.643 195.429 204.296 195.841 204.853 196.392C205.415 196.943 205.853 197.636 206.165 198.472C206.478 199.301 206.634 200.273 206.634 201.386V202.384H195.58V200.134H203.217C203.217 199.611 203.103 199.148 202.876 198.744C202.648 198.341 202.333 198.026 201.93 197.798C201.532 197.565 201.069 197.449 200.54 197.449C199.989 197.449 199.501 197.577 199.075 197.832C198.654 198.082 198.325 198.42 198.086 198.847C197.847 199.267 197.725 199.736 197.719 200.253V202.392C197.719 203.04 197.839 203.599 198.077 204.071C198.322 204.543 198.665 204.906 199.109 205.162C199.552 205.418 200.077 205.545 200.685 205.545C201.089 205.545 201.458 205.489 201.793 205.375C202.129 205.261 202.415 205.091 202.654 204.864C202.893 204.636 203.075 204.358 203.2 204.028L206.558 204.25C206.387 205.057 206.038 205.761 205.509 206.364C204.987 206.96 204.31 207.426 203.481 207.761C202.657 208.091 201.705 208.256 200.626 208.256ZM212.634 200.432V208H209.004V194.909H212.464V197.219H212.617C212.907 196.457 213.393 195.855 214.075 195.412C214.756 194.963 215.583 194.739 216.555 194.739C217.464 194.739 218.256 194.938 218.933 195.335C219.609 195.733 220.134 196.301 220.509 197.04C220.884 197.773 221.072 198.648 221.072 199.665V208H217.441V200.312C217.447 199.511 217.242 198.886 216.827 198.438C216.413 197.983 215.842 197.756 215.114 197.756C214.626 197.756 214.194 197.861 213.819 198.071C213.45 198.281 213.16 198.588 212.95 198.991C212.745 199.389 212.64 199.869 212.634 200.432ZM228.757 208.213C227.763 208.213 226.862 207.957 226.055 207.446C225.254 206.929 224.618 206.17 224.146 205.17C223.68 204.165 223.447 202.932 223.447 201.472C223.447 199.972 223.689 198.724 224.172 197.73C224.655 196.73 225.297 195.983 226.098 195.489C226.905 194.989 227.788 194.739 228.749 194.739C229.482 194.739 230.092 194.864 230.581 195.114C231.075 195.358 231.473 195.665 231.774 196.034C232.081 196.398 232.314 196.756 232.473 197.108H232.584V190.545H236.206V208H232.626V205.903H232.473C232.303 206.267 232.061 206.628 231.749 206.986C231.442 207.338 231.041 207.631 230.547 207.864C230.058 208.097 229.462 208.213 228.757 208.213ZM229.908 205.324C230.493 205.324 230.987 205.165 231.391 204.847C231.8 204.523 232.112 204.071 232.328 203.491C232.55 202.912 232.661 202.233 232.661 201.455C232.661 200.676 232.553 200 232.337 199.426C232.121 198.852 231.808 198.409 231.399 198.097C230.99 197.784 230.493 197.628 229.908 197.628C229.311 197.628 228.808 197.79 228.399 198.114C227.99 198.437 227.68 198.886 227.47 199.46C227.26 200.034 227.155 200.699 227.155 201.455C227.155 202.216 227.26 202.889 227.47 203.474C227.686 204.054 227.996 204.509 228.399 204.838C228.808 205.162 229.311 205.324 229.908 205.324Z" fill="#E63946"/>
<path d="M161.107 142.059L171.488 124.078L234.925 160.704C239.891 163.571 241.592 169.92 238.725 174.885C235.859 179.85 229.509 181.552 224.544 178.685L161.107 142.059Z" fill="#231F20" stroke="#231F20"/>
<circle cx="119.972" cy="106.972" r="55.1156" transform="rotate(-60 119.972 106.972)" fill="#231F20" stroke="#231F20"/>
<circle cx="120.475" cy="107.312" r="47.2569" transform="rotate(-60 120.475 107.312)" fill="#D9D9D9" stroke="#231F20"/>
<circle cx="103.124" cy="82.1244" r="14" transform="rotate(-60 103.124 82.1244)" fill="white"/>
<rect x="61" y="48.071" width="10" height="173.522" rx="5" transform="rotate(-45 61 48.071)" fill="#E63946"/>
<rect x="184" y="42.7695" width="10" height="173.522" rx="5" transform="rotate(45 184 42.7695)" fill="#E63946"/>
<path d="M229.028 49.375C228.808 50.9404 229.906 52.4177 231.484 52.3307C233.406 52.2247 235.298 51.7413 237.048 50.8977C239.663 49.6375 241.846 47.6302 243.32 45.1296C244.794 42.629 245.493 39.7475 245.33 36.8494C245.166 33.9513 244.147 31.1667 242.401 28.8479C240.654 26.5291 238.26 24.7801 235.52 23.8222C232.78 22.8643 229.817 22.7404 227.007 23.4662C224.196 24.1921 221.664 25.735 219.73 27.9C218.436 29.3493 217.449 31.0337 216.816 32.8513C216.296 34.3443 217.413 35.8078 218.978 36.0283C220.543 36.2488 221.953 35.1213 222.654 33.7046C223.009 32.9872 223.461 32.3169 224 31.7134C225.179 30.3929 226.724 29.4518 228.438 29.0091C230.152 28.5664 231.959 28.642 233.631 29.2262C235.302 29.8105 236.762 30.8773 237.827 32.2916C238.892 33.7059 239.514 35.4043 239.614 37.172C239.714 38.9397 239.287 40.6972 238.388 42.2224C237.489 43.7476 236.158 44.972 234.563 45.7406C233.834 46.0919 233.065 46.3408 232.277 46.4839C230.722 46.7666 229.249 47.8097 229.028 49.375Z" fill="#E63946"/>
<rect x="228.814" y="46.9785" width="5.7879" height="12.4026" rx="2.89395" fill="#E63946"/>
<rect x="229" y="61" width="6" height="6" rx="3" fill="#E63946"/>
</svg>
