<svg width="304" height="231" viewBox="0 0 304 231" fill="none" xmlns="http://www.w3.org/2000/svg">
<rect width="304" height="231" rx="20" fill="white"/>
<path d="M173.107 145.059L183.488 127.078L246.925 163.704C251.891 166.571 253.592 172.92 250.725 177.885C247.859 182.85 241.509 184.552 236.544 181.685L173.107 145.059Z" fill="#231F20" stroke="#231F20"/>
<circle cx="131.972" cy="109.972" r="55.1156" transform="rotate(-60 131.972 109.972)" fill="#231F20" stroke="#231F20"/>
<circle cx="132.475" cy="110.312" r="47.2569" transform="rotate(-60 132.475 110.312)" fill="#D9D9D9" stroke="#231F20"/>
<circle cx="115.124" cy="85.1244" r="14" transform="rotate(-60 115.124 85.1244)" fill="white"/>
<rect x="73" y="51.071" width="10" height="173.522" rx="5" transform="rotate(-45 73 51.071)" fill="#E63946"/>
<rect x="196" y="45.7695" width="10" height="173.522" rx="5" transform="rotate(45 196 45.7695)" fill="#E63946"/>
<path d="M255.028 56.375C254.808 57.9404 255.906 59.4177 257.484 59.3307C259.406 59.2247 261.298 58.7413 263.048 57.8977C265.663 56.6375 267.846 54.6302 269.32 52.1296C270.794 49.629 271.493 46.7475 271.33 43.8494C271.166 40.9513 270.147 38.1667 268.401 35.8479C266.654 33.5291 264.26 31.7801 261.52 30.8222C258.78 29.8643 255.817 29.7404 253.007 30.4662C250.196 31.1921 247.664 32.735 245.73 34.9C244.436 36.3493 243.449 38.0337 242.816 39.8513C242.296 41.3443 243.413 42.8078 244.978 43.0283C246.543 43.2488 247.953 42.1213 248.654 40.7046C249.009 39.9872 249.461 39.3169 250 38.7134C251.179 37.3929 252.724 36.4518 254.438 36.0091C256.152 35.5664 257.959 35.642 259.631 36.2262C261.302 36.8105 262.762 37.8773 263.827 39.2916C264.892 40.7059 265.514 42.4043 265.614 44.172C265.714 45.9397 265.287 47.6972 264.388 49.2224C263.489 50.7476 262.158 51.972 260.563 52.7406C259.834 53.0919 259.065 53.3408 258.277 53.4839C256.722 53.7666 255.249 54.8097 255.028 56.375Z" fill="#E63946"/>
<rect x="254.814" y="53.9785" width="5.7879" height="12.4026" rx="2.89395" fill="#E63946"/>
<rect x="255" y="68" width="6" height="6" rx="3" fill="#E63946"/>
</svg>
