<svg width="119" height="119" viewBox="0 0 119 119" fill="none" xmlns="http://www.w3.org/2000/svg">
<circle cx="59.5" cy="59.5" r="57" fill="#0D7377" stroke="#0D7377" stroke-width="5"/>
<path d="M83.5141 39.5327H73.3646V34.458C73.3646 32.2148 72.4735 30.0635 70.8873 28.4773C69.3011 26.8911 67.1498 26 64.9066 26H54.7571C52.5139 26 50.3626 26.8911 48.7764 28.4773C47.1902 30.0635 46.2991 32.2148 46.2991 34.458V39.5327H36.1496C33.4577 39.5327 30.8761 40.6021 28.9727 42.5055C27.0693 44.4089 26 46.9905 26 49.6823V76.7478C26 79.4396 27.0693 82.0212 28.9727 83.9246C30.8761 85.828 33.4577 86.8973 36.1496 86.8973H83.5141C86.206 86.8973 88.7875 85.828 90.6909 83.9246C92.5944 82.0212 93.6637 79.4396 93.6637 76.7478V49.6823C93.6637 46.9905 92.5944 44.4089 90.6909 42.5055C88.7875 40.6021 86.206 39.5327 83.5141 39.5327ZM53.0655 34.458C53.0655 34.0093 53.2437 33.5791 53.5609 33.2618C53.8782 32.9446 54.3084 32.7664 54.7571 32.7664H64.9066C65.3553 32.7664 65.7855 32.9446 66.1028 33.2618C66.42 33.5791 66.5982 34.0093 66.5982 34.458V39.5327H53.0655V34.458ZM86.8973 76.7478C86.8973 77.645 86.5409 78.5056 85.9064 79.14C85.2719 79.7745 84.4114 80.1309 83.5141 80.1309H36.1496C35.2523 80.1309 34.3918 79.7745 33.7573 79.14C33.1228 78.5056 32.7664 77.645 32.7664 76.7478V49.6823C32.7664 48.785 33.1228 47.9245 33.7573 47.29C34.3918 46.6555 35.2523 46.2991 36.1496 46.2991H83.5141C84.4114 46.2991 85.2719 46.6555 85.9064 47.29C86.5409 47.9245 86.8973 48.785 86.8973 49.6823V76.7478Z" fill="white"/>
<path d="M59.8314 51.3738C57.4894 51.3738 55.2001 52.0682 53.2528 53.3694C51.3055 54.6705 49.7878 56.5198 48.8916 58.6835C47.9954 60.8472 47.7609 63.2281 48.2178 65.525C48.6747 67.822 49.8024 69.9319 51.4584 71.5879C53.1144 73.2439 55.2243 74.3717 57.5213 74.8285C59.8182 75.2854 62.1991 75.0509 64.3628 74.1547C66.5265 73.2585 68.3758 71.7408 69.6769 69.7935C70.9781 67.8462 71.6725 65.5569 71.6725 63.2149C71.6725 60.0745 70.425 57.0626 68.2043 54.842C65.9837 52.6213 62.9719 51.3738 59.8314 51.3738ZM59.8314 68.2897C58.8277 68.2897 57.8465 67.9921 57.012 67.4344C56.1774 66.8768 55.527 66.0842 55.1429 65.157C54.7588 64.2297 54.6583 63.2093 54.8541 62.2249C55.0499 61.2405 55.5333 60.3362 56.243 59.6265C56.9527 58.9168 57.8569 58.4335 58.8413 58.2377C59.8258 58.0418 60.8461 58.1423 61.7734 58.5264C62.7007 58.9105 63.4933 59.561 64.0509 60.3955C64.6085 61.2301 64.9062 62.2112 64.9062 63.2149C64.9062 64.5608 64.3715 65.8516 63.4198 66.8033C62.4681 67.755 61.1773 68.2897 59.8314 68.2897Z" fill="white"/>
</svg>
