<svg width="26" height="26" viewBox="0 0 26 26" fill="none" xmlns="http://www.w3.org/2000/svg">
<path d="M15.9375 13.0007L24.8958 4.06321C25.2881 3.67091 25.5085 3.13884 25.5085 2.58405C25.5085 2.02925 25.2881 1.49718 24.8958 1.10488C24.5035 0.712579 23.9715 0.492187 23.4167 0.492188C22.8619 0.492188 22.3298 0.712579 21.9375 1.10488L13 10.0632L4.06249 1.10488C3.6702 0.712579 3.13812 0.492187 2.58333 0.492188C2.02853 0.492188 1.49646 0.712579 1.10416 1.10488C0.711862 1.49718 0.49147 2.02925 0.49147 2.58405C0.49147 3.13884 0.711862 3.67091 1.10416 4.06321L10.0625 13.0007L1.10416 21.9382C0.908894 22.1319 0.753906 22.3623 0.648138 22.6162C0.54237 22.87 0.487915 23.1424 0.487915 23.4174C0.487915 23.6924 0.54237 23.9647 0.648138 24.2186C0.753906 24.4725 0.908894 24.7029 1.10416 24.8965C1.29783 25.0918 1.52825 25.2468 1.78213 25.3526C2.036 25.4583 2.3083 25.5128 2.58333 25.5128C2.85835 25.5128 3.13066 25.4583 3.38453 25.3526C3.6384 25.2468 3.86882 25.0918 4.06249 24.8965L13 15.9382L21.9375 24.8965C22.1312 25.0918 22.3616 25.2468 22.6155 25.3526C22.8693 25.4583 23.1416 25.5128 23.4167 25.5128C23.6917 25.5128 23.964 25.4583 24.2179 25.3526C24.4717 25.2468 24.7022 25.0918 24.8958 24.8965C25.0911 24.7029 25.2461 24.4725 25.3519 24.2186C25.4576 23.9647 25.5121 23.6924 25.5121 23.4174C25.5121 23.1424 25.4576 22.87 25.3519 22.6162C25.2461 22.3623 25.0911 22.1319 24.8958 21.9382L15.9375 13.0007Z" fill="white"/>
</svg>
