<svg width="130" height="130" viewBox="0 0 130 130" fill="none" xmlns="http://www.w3.org/2000/svg">
<g opacity="0.75">
<path d="M81.2487 86.6675H48.7487C47.3121 86.6675 45.9344 87.2382 44.9185 88.254C43.9027 89.2698 43.332 90.6476 43.332 92.0841C43.332 93.5207 43.9027 94.8985 44.9185 95.9143C45.9344 96.9301 47.3121 97.5008 48.7487 97.5008H81.2487C82.6853 97.5008 84.063 96.9301 85.0789 95.9143C86.0947 94.8985 86.6654 93.5207 86.6654 92.0841C86.6654 90.6476 86.0947 89.2698 85.0789 88.254C84.063 87.2382 82.6853 86.6675 81.2487 86.6675Z" fill="#231F20"/>
<path d="M48.7487 75.8343H64.9987C66.4353 75.8343 67.813 75.2636 68.8289 74.2478C69.8447 73.232 70.4154 71.8542 70.4154 70.4176C70.4154 68.9811 69.8447 67.6033 68.8289 66.5875C67.813 65.5717 66.4353 65.001 64.9987 65.001H48.7487C47.3121 65.001 45.9344 65.5717 44.9185 66.5875C43.9027 67.6033 43.332 68.9811 43.332 70.4176C43.332 71.8542 43.9027 73.232 44.9185 74.2478C45.9344 75.2636 47.3121 75.8343 48.7487 75.8343Z" fill="#231F20"/>
<path d="M106.922 45.1224L77.4557 12.6225C76.9493 12.0613 76.331 11.6124 75.6407 11.3046C74.9504 10.9967 74.2033 10.8367 73.4474 10.835H35.5307C33.731 10.8135 31.9447 11.1467 30.2739 11.8157C28.603 12.4846 27.0802 13.4761 25.7925 14.7336C24.5049 15.9911 23.4775 17.4899 22.7692 19.1445C22.0608 20.799 21.6853 22.5769 21.6641 24.3766V105.627C21.6853 107.426 22.0608 109.204 22.7692 110.859C23.4775 112.513 24.5049 114.012 25.7925 115.27C27.0802 116.527 28.603 117.519 30.2739 118.188C31.9447 118.856 33.731 119.19 35.5307 119.168H94.4641C96.2638 119.19 98.05 118.856 99.7209 118.188C101.392 117.519 102.915 116.527 104.202 115.27C105.49 114.012 106.517 112.513 107.226 110.859C107.934 109.204 108.31 107.426 108.331 105.627V48.7516C108.327 47.4092 107.825 46.1159 106.922 45.1224ZM75.8307 27.085L90.6724 43.3349H79.8391C79.2718 43.3007 78.7171 43.1538 78.2072 42.9029C77.6974 42.6519 77.2426 42.3019 76.8695 41.8733C76.4964 41.4447 76.2123 40.9461 76.034 40.4066C75.8556 39.867 75.7865 39.2973 75.8307 38.7308V27.085ZM94.4641 108.335H35.5307C35.1536 108.357 34.7758 108.304 34.4191 108.18C34.0624 108.056 33.7337 107.862 33.4519 107.61C33.1701 107.359 32.9407 107.054 32.7769 106.714C32.6131 106.373 32.5181 106.004 32.4974 105.627V24.3766C32.5181 23.9994 32.6131 23.63 32.7769 23.2896C32.9407 22.9492 33.1701 22.6444 33.4519 22.3928C33.7337 22.1412 34.0624 21.9477 34.4191 21.8234C34.7758 21.699 35.1536 21.6463 35.5307 21.6683H64.9974V38.7308C64.91 42.7208 66.4044 46.5835 69.1545 49.4757C71.9046 52.3679 75.6872 54.0548 79.6766 54.1683H97.4974V105.627C97.4767 106.004 97.3817 106.373 97.2179 106.714C97.0541 107.054 96.8247 107.359 96.5429 107.61C96.2611 107.862 95.9324 108.056 95.5757 108.18C95.219 108.304 94.8412 108.357 94.4641 108.335Z" fill="#231F20"/>
</g>
</svg>
