<svg width="87" height="109" viewBox="0 0 87 109" fill="none" xmlns="http://www.w3.org/2000/svg">
<path d="M59.5846 75.8335H27.0846C25.648 75.8335 24.2703 76.4042 23.2545 77.42C22.2387 78.4358 21.668 79.8136 21.668 81.2502C21.668 82.6868 22.2387 84.0645 23.2545 85.0803C24.2703 86.0962 25.648 86.6668 27.0846 86.6668H59.5846C61.0212 86.6668 62.399 86.0962 63.4148 85.0803C64.4306 84.0645 65.0013 82.6868 65.0013 81.2502C65.0013 79.8136 64.4306 78.4358 63.4148 77.42C62.399 76.4042 61.0212 75.8335 59.5846 75.8335Z" fill="white"/>
<path d="M27.0846 65.0003H43.3346C44.7712 65.0003 46.149 64.4296 47.1648 63.4138C48.1806 62.398 48.7513 61.0202 48.7513 59.5837C48.7513 58.1471 48.1806 56.7693 47.1648 55.7535C46.149 54.7377 44.7712 54.167 43.3346 54.167H27.0846C25.648 54.167 24.2703 54.7377 23.2545 55.7535C22.2387 56.7693 21.668 58.1471 21.668 59.5837C21.668 61.0202 22.2387 62.398 23.2545 63.4138C24.2703 64.4296 25.648 65.0003 27.0846 65.0003Z" fill="white"/>
<path d="M85.2583 34.2885L55.7917 1.78847C55.2852 1.22735 54.667 0.778426 53.9767 0.470575C53.2863 0.162724 52.5392 0.00276144 51.7833 0.000974871H13.8667C12.067 -0.0204919 10.2807 0.312758 8.60979 0.981696C6.93891 1.65063 5.41615 2.64216 4.12848 3.89964C2.84082 5.15713 1.81347 6.65594 1.1051 8.3105C0.396728 9.96506 0.0212137 11.7429 0 13.5426V94.7926C0.0212137 96.5923 0.396728 98.3702 1.1051 100.025C1.81347 101.679 2.84082 103.178 4.12848 104.436C5.41615 105.693 6.93891 106.685 8.60979 107.354C10.2807 108.022 12.067 108.356 13.8667 108.334H72.8C74.5997 108.356 76.386 108.022 78.0569 107.354C79.7278 106.685 81.2505 105.693 82.5382 104.436C83.8258 103.178 84.8532 101.679 85.5616 100.025C86.2699 98.3702 86.6455 96.5923 86.6667 94.7926V37.9176C86.6632 36.5752 86.1613 35.2819 85.2583 34.2885ZM54.1667 16.251L69.0083 32.501H58.175C57.6078 32.4667 57.053 32.3198 56.5432 32.0689C56.0333 31.8179 55.5786 31.468 55.2054 31.0394C54.8323 30.6108 54.5483 30.1121 54.3699 29.5726C54.1916 29.033 54.1225 28.4633 54.1667 27.8968V16.251ZM72.8 97.5009H13.8667C13.4895 97.5229 13.1118 97.4702 12.755 97.3459C12.3983 97.2215 12.0696 97.028 11.7878 96.7764C11.506 96.5248 11.2766 96.2201 11.1129 95.8796C10.9491 95.5392 10.8541 95.1698 10.8333 94.7926V13.5426C10.8541 13.1654 10.9491 12.796 11.1129 12.4556C11.2766 12.1152 11.506 11.8104 11.7878 11.5588C12.0696 11.3072 12.3983 11.1137 12.755 10.9894C13.1118 10.865 13.4895 10.8124 13.8667 10.8343H43.3333V27.8968C43.2459 31.8868 44.7403 35.7495 47.4905 38.6417C50.2406 41.5339 54.0231 43.2208 58.0125 43.3343H75.8333V94.7926C75.8126 95.1698 75.7176 95.5392 75.5538 95.8796C75.39 96.2201 75.1607 96.5248 74.8789 96.7764C74.5971 97.028 74.2684 97.2215 73.9116 97.3459C73.5549 97.4702 73.1771 97.5229 72.8 97.5009Z" fill="white"/>
</svg>
