<svg width="350" height="213" viewBox="0 0 350 213" fill="none" xmlns="http://www.w3.org/2000/svg">
<rect width="274.737" height="191.792" rx="20" transform="matrix(1 0 -0.0908064 0.995869 74.4346 22)" fill="#95111B"/>
<path fill-rule="evenodd" clip-rule="evenodd" d="M237.001 0H124.373L115.186 21.6095H15.5893C4.54356 21.6095 -2.14154 30.2715 0.657664 40.9566L40.5897 193.385C43.3889 204.07 54.6124 212.732 65.6581 212.732H315.658C326.704 212.732 333.389 204.07 330.59 193.385L328.262 184.5L318.831 148.5L290.658 40.9566C287.858 30.2715 276.635 21.6095 265.589 21.6095H245.025L237.001 0Z" fill="#E63946"/>
<rect x="142" y="94.0742" width="10.002" height="76.2649" transform="rotate(-45 142 94.0742)" fill="white"/>
<rect x="195.928" y="87" width="10.002" height="76.2649" transform="rotate(45 195.928 87)" fill="white"/>
</svg>
