<svg width="151" height="58" viewBox="0 0 151 58" fill="none" xmlns="http://www.w3.org/2000/svg">
<g clip-path="url(#clip0_108_116)">
<path d="M35.8426 0C29.9456 0 24.2903 2.33943 20.1206 6.50366L6.51228 20.0939C2.34253 24.2581 0 29.906 0 35.7951C0 48.0586 9.95465 58 22.2344 58C28.1313 58 33.7866 55.6605 37.9564 51.4963L47.3693 42.0958C47.3695 42.096 47.3693 42.0956 47.3693 42.0958L74.7953 14.7061C76.7868 12.7173 79.4878 11.6 82.3041 11.6C87.0192 11.6 91.0166 14.669 92.4025 18.9159L101.058 10.2717C97.1095 4.09546 90.1857 0 82.3041 0C76.4072 0 70.7518 2.33943 66.5821 6.50366L29.7431 43.2939C27.7517 45.2827 25.0507 46.4 22.2344 46.4C16.3696 46.4 11.6154 41.6521 11.6154 35.7951C11.6154 32.9825 12.7342 30.2851 14.7256 28.2963L28.3338 14.7061C30.3253 12.7173 33.0262 11.6 35.8426 11.6C40.5578 11.6 44.5551 14.6691 45.941 18.9161L54.5968 10.2719C50.6481 4.09557 43.7244 0 35.8426 0Z" fill="#E63946"/>
<path d="M76.2046 43.2939C74.2132 45.2827 71.5122 46.4 68.6959 46.4C63.9814 46.4 59.9843 43.3318 58.598 39.0856L49.9426 47.7296C53.8915 53.905 60.8148 58 68.6959 58C74.5928 58 80.2481 55.6605 84.4179 51.4963L121.257 14.7061C123.248 12.7173 125.949 11.6 128.766 11.6C134.63 11.6 139.385 16.348 139.385 22.2049C139.385 25.0175 138.266 27.7149 136.274 29.7037L122.666 43.2939C120.675 45.2827 117.974 46.4 115.157 46.4C110.443 46.4 106.445 43.3312 105.059 39.0847L96.4038 47.7288C100.352 53.9048 107.276 58 115.157 58C121.054 58 126.71 55.6605 130.879 51.4963L144.488 37.9061C148.657 33.7419 151 28.094 151 22.2049C151 9.94147 141.045 0 128.766 0C122.869 0 117.213 2.33943 113.044 6.50366L76.2046 43.2939Z" fill="#457B9D"/>
</g>
<defs>
<clipPath id="clip0_108_116">
<rect width="151" height="58" fill="white"/>
</clipPath>
</defs>
</svg>
