<svg width="107" height="131" viewBox="0 0 107 131" fill="none" xmlns="http://www.w3.org/2000/svg">
<path d="M69.5846 86.8311H37.0846C35.648 86.8311 34.2703 87.4017 33.2545 88.4176C32.2387 89.4334 31.668 90.8111 31.668 92.2477C31.668 93.6843 32.2387 95.0621 33.2545 96.0779C34.2703 97.0937 35.648 97.6644 37.0846 97.6644H69.5846C71.0212 97.6644 72.399 97.0937 73.4148 96.0779C74.4306 95.0621 75.0013 93.6843 75.0013 92.2477C75.0013 90.8111 74.4306 89.4334 73.4148 88.4176C72.399 87.4017 71.0212 86.8311 69.5846 86.8311Z" fill="white"/>
<path d="M37.0846 75.9979H53.3346C54.7712 75.9979 56.149 75.4272 57.1648 74.4114C58.1806 73.3956 58.7513 72.0178 58.7513 70.5812C58.7513 69.1446 58.1806 67.7669 57.1648 66.7511C56.149 65.7352 54.7712 65.1646 53.3346 65.1646H37.0846C35.648 65.1646 34.2703 65.7352 33.2545 66.7511C32.2387 67.7669 31.668 69.1446 31.668 70.5812C31.668 72.0178 32.2387 73.3956 33.2545 74.4114C34.2703 75.4272 35.648 75.9979 37.0846 75.9979Z" fill="white"/>
<path d="M95.2583 45.286L65.7917 12.786C65.2852 12.2249 64.667 11.776 63.9767 11.4681C63.2863 11.1603 62.5392 11.0003 61.7833 10.9985H23.8667C22.067 10.9771 20.2807 11.3103 18.6098 11.9793C16.9389 12.6482 15.4161 13.6397 14.1285 14.8972C12.8408 16.1547 11.8135 17.6535 11.1051 19.3081C10.3967 20.9626 10.0212 22.7405 10 24.5402V105.79C10.0212 107.59 10.3967 109.368 11.1051 111.022C11.8135 112.677 12.8408 114.176 14.1285 115.433C15.4161 116.691 16.9389 117.682 18.6098 118.351C20.2807 119.02 22.067 119.353 23.8667 119.332H82.8C84.5997 119.353 86.386 119.02 88.0569 118.351C89.7278 117.682 91.2505 116.691 92.5382 115.433C93.8258 114.176 94.8532 112.677 95.5616 111.022C96.2699 109.368 96.6455 107.59 96.6667 105.79V48.9152C96.6632 47.5727 96.1613 46.2794 95.2583 45.286ZM64.1667 27.2485L79.0083 43.4985H68.175C67.6078 43.4643 67.053 43.3174 66.5432 43.0664C66.0333 42.8155 65.5786 42.4655 65.2054 42.0369C64.8323 41.6083 64.5483 41.1097 64.3699 40.5701C64.1916 40.0306 64.1225 39.4609 64.1667 38.8944V27.2485ZM82.8 108.499H23.8667C23.4895 108.52 23.1118 108.468 22.755 108.343C22.3983 108.219 22.0696 108.026 21.7878 107.774C21.506 107.522 21.2766 107.218 21.1129 106.877C20.9491 106.537 20.8541 106.167 20.8333 105.79V24.5402C20.8541 24.163 20.9491 23.7936 21.1129 23.4532C21.2766 23.1127 21.506 22.808 21.7878 22.5564C22.0696 22.3048 22.3983 22.1113 22.755 21.9869C23.1118 21.8626 23.4895 21.8099 23.8667 21.8319H53.3333V38.8944C53.2459 42.8844 54.7403 46.747 57.4905 49.6392C60.2406 52.5314 64.0231 54.2184 68.0125 54.3319H85.8333V105.79C85.8126 106.167 85.7176 106.537 85.5538 106.877C85.39 107.218 85.1607 107.522 84.8789 107.774C84.5971 108.026 84.2684 108.219 83.9116 108.343C83.5549 108.468 83.1771 108.52 82.8 108.499Z" fill="white"/>
<path d="M4.0322 13.1626C1.80528 10.347 2.28253 6.25918 5.09818 4.03226V4.03226C7.91382 1.80534 12.0016 2.2826 14.2285 5.09824L102.937 117.258C105.164 120.074 104.686 124.162 101.871 126.389V126.389C99.0552 128.615 94.9674 128.138 92.7405 125.323L4.0322 13.1626Z" fill="white"/>
</svg>
