<svg width="151" height="151" viewBox="0 0 151 151" fill="none" xmlns="http://www.w3.org/2000/svg">
<path d="M113.135 18.856H37.7114C32.7105 18.856 27.9144 20.8426 24.3782 24.3787C20.8421 27.9149 18.8555 32.7109 18.8555 37.7118V113.135C18.8555 118.136 20.8421 122.932 24.3782 126.468C27.9144 130.005 32.7105 131.991 37.7114 131.991H113.135C118.136 131.991 122.932 130.005 126.468 126.468C130.004 122.932 131.991 118.136 131.991 113.135V37.7118C131.991 32.7109 130.004 27.9149 126.468 24.3787C122.932 20.8426 118.136 18.856 113.135 18.856ZM37.7114 31.4265H113.135C114.802 31.4265 116.401 32.0887 117.579 33.2675C118.758 34.4462 119.42 36.0449 119.42 37.7118V63.8191C119.42 74.2262 107.225 79.8525 99.3072 73.098V73.098C96.191 70.5339 92.2807 69.132 88.2451 69.132C84.2095 69.132 80.2993 70.5339 77.183 73.098L64.2339 83.8949C51.2084 94.7555 31.4261 85.4932 31.4261 68.5339V37.7118C31.4261 36.0449 32.0883 34.4462 33.267 33.2675C34.4457 32.0887 36.0444 31.4265 37.7114 31.4265Z" fill="#231F20"/>
<path d="M50.2834 62.853C55.4903 62.853 59.7114 58.6319 59.7114 53.425C59.7114 48.2181 55.4903 43.9971 50.2834 43.9971C45.0765 43.9971 40.8555 48.2181 40.8555 53.425C40.8555 58.6319 45.0765 62.853 50.2834 62.853Z" fill="#231F20"/>
</svg>
