<svg width="149" height="148" viewBox="0 0 149 148" fill="none" xmlns="http://www.w3.org/2000/svg">
<path d="M3 3H51" stroke="white" stroke-width="5" stroke-linecap="round"/>
<path d="M12 14.2402H141" stroke="white" stroke-width="5" stroke-linecap="round"/>
<path d="M20 24.3567L20 112.031" stroke="white" stroke-width="5" stroke-linecap="round"/>
<path d="M20 24.3567L75 81.6823" stroke="white" stroke-width="5" stroke-linecap="round"/>
<path d="M68 74.376L80 86.7403L93 73.814" stroke="white" stroke-width="5" stroke-linecap="round"/>
<path d="M141 25.4807L84 82.8063" stroke="white" stroke-width="5" stroke-linecap="round"/>
<path d="M141 14.2402V79.434" stroke="white" stroke-width="5" stroke-linecap="round"/>
<path d="M58 80.5581L20 112.031" stroke="white" stroke-width="5" stroke-linecap="round"/>
<path d="M84 123.271L12 123.271" stroke="white" stroke-width="5" stroke-linecap="round"/>
<path d="M53 133.388H5" stroke="white" stroke-width="5" stroke-linecap="round"/>
<path d="M146 89.5503L119 122.147" stroke="#0D7377" stroke-width="5" stroke-linecap="round"/>
<path d="M119 122.147L107 106.411" stroke="#0D7377" stroke-width="5" stroke-linecap="round"/>
<path d="M147.203 106.427C148.784 114.106 147.998 122.187 144.981 129.261C141.964 136.335 136.907 141.953 130.693 145.137C124.479 148.321 117.501 148.868 110.975 146.683C104.45 144.498 98.7907 139.72 94.9842 133.181C91.1778 126.642 89.4656 118.757 90.1459 110.9C90.8263 103.044 93.8561 95.7144 98.7073 90.1891C103.559 84.6638 109.923 81.2933 116.693 80.665C123.462 80.0368 130.206 82.1906 135.749 86.7512L132.626 91.8839C128.116 88.1737 122.63 86.4215 117.123 86.9326C111.616 87.4437 106.438 90.1858 102.491 94.6808C98.5444 99.1759 96.0795 105.139 95.526 111.53C94.9724 117.922 96.3654 124.337 99.4621 129.656C102.559 134.976 107.163 138.864 112.472 140.641C117.78 142.419 123.457 141.974 128.513 139.384C133.568 136.793 137.682 132.222 140.136 126.467C142.591 120.712 143.231 114.138 141.944 107.891L147.203 106.427Z" fill="white"/>
</svg>
